<svg id="visual" viewBox="0 0 900 600" width="900" height="600" xmlns="http://www.w3.org/2000/svg" xmlns:xlink="http://www.w3.org/1999/xlink" version="1.1"><g stroke-width="1" stroke-linejoin="bevel"><path d="M461.6 317.3L512.6 305.7L440.4 277.7Z" fill="#23201f" stroke="#23201f"></path><path d="M512.6 305.7L537.8 259.7L440.4 277.7Z" fill="#181716" stroke="#181716"></path><path d="M586.8 426L550.8 310.3L512.6 305.7Z" fill="#23201f" stroke="#23201f"></path><path d="M512.6 305.7L550.8 310.3L537.8 259.7Z" fill="#23201f" stroke="#23201f"></path><path d="M624.1 273.7L542.8 218L537.8 259.7Z" fill="#100e0d" stroke="#100e0d"></path><path d="M537.8 259.7L542.8 218L440.4 277.7Z" fill="#1e1b1a" stroke="#1e1b1a"></path><path d="M542.8 218L519.6 178L440.4 277.7Z" fill="#0c0a09" stroke="#0c0a09"></path><path d="M586.8 426L596.1 326.3L550.8 310.3Z" fill="#161413" stroke="#161413"></path><path d="M550.8 310.3L624.1 273.7L537.8 259.7Z" fill="#100e0d" stroke="#100e0d"></path><path d="M440.4 277.7L393.4 372.3L461.6 317.3Z" fill="#262322" stroke="#262322"></path><path d="M461.6 317.3L447.6 416L512.6 305.7Z" fill="#181716" stroke="#181716"></path><path d="M440.4 277.7L377.2 366.3L393.4 372.3Z" fill="#23201f" stroke="#23201f"></path><path d="M457.6 146.3L416.4 163L440.4 277.7Z" fill="#1b1918" stroke="#1b1918"></path><path d="M440.4 277.7L343.2 286.7L377.2 366.3Z" fill="#201e1d" stroke="#201e1d"></path><path d="M346.2 217L343.2 286.7L440.4 277.7Z" fill="#292524" stroke="#292524"></path><path d="M519.6 178L457.6 146.3L440.4 277.7Z" fill="#23201f" stroke="#23201f"></path><path d="M378.4 382L447.6 416L393.4 372.3Z" fill="#0c0a09" stroke="#0c0a09"></path><path d="M393.4 372.3L447.6 416L461.6 317.3Z" fill="#1e1b1a" stroke="#1e1b1a"></path><path d="M330.2 411L378.4 382L377.2 366.3Z" fill="#1e1b1a" stroke="#1e1b1a"></path><path d="M377.2 366.3L378.4 382L393.4 372.3Z" fill="#181716" stroke="#181716"></path><path d="M596.1 326.3L624.1 273.7L550.8 310.3Z" fill="#1b1918" stroke="#1b1918"></path><path d="M542.8 218L592.8 164.3L519.6 178Z" fill="#100e0d" stroke="#100e0d"></path><path d="M416.4 163L346.2 217L440.4 277.7Z" fill="#23201f" stroke="#23201f"></path><path d="M639.1 234L592.8 164.3L542.8 218Z" fill="#0c0a09" stroke="#0c0a09"></path><path d="M519.6 178L452.4 103.3L457.6 146.3Z" fill="#292524" stroke="#292524"></path><path d="M402.4 472.7L452.6 444.7L447.6 416Z" fill="#23201f" stroke="#23201f"></path><path d="M447.6 416L586.8 426L512.6 305.7Z" fill="#1b1918" stroke="#1b1918"></path><path d="M624.1 273.7L639.1 234L542.8 218Z" fill="#161413" stroke="#161413"></path><path d="M582.8 56.7L583.1 141.3L594.1 43.7Z" fill="#201e1d" stroke="#201e1d"></path><path d="M592.8 164.3L583.1 141.3L519.6 178Z" fill="#1e1b1a" stroke="#1e1b1a"></path><path d="M452.6 444.7L586.8 426L447.6 416Z" fill="#201e1d" stroke="#201e1d"></path><path d="M596.1 326.3L687.3 306.3L624.1 273.7Z" fill="#292524" stroke="#292524"></path><path d="M624.1 273.7L687.3 306.3L639.1 234Z" fill="#161413" stroke="#161413"></path><path d="M583.1 141.3L452.4 103.3L519.6 178Z" fill="#1b1918" stroke="#1b1918"></path><path d="M457.6 146.3L452.4 103.3L416.4 163Z" fill="#292524" stroke="#292524"></path><path d="M416.4 163L369.2 126.3L346.2 217Z" fill="#161413" stroke="#161413"></path><path d="M586.8 426L617.1 410L596.1 326.3Z" fill="#292524" stroke="#292524"></path><path d="M452.4 103.3L369.2 126.3L416.4 163Z" fill="#1e1b1a" stroke="#1e1b1a"></path><path d="M252.9 239.7L285.9 300.3L343.2 286.7Z" fill="#181716" stroke="#181716"></path><path d="M343.2 286.7L285.9 300.3L377.2 366.3Z" fill="#262322" stroke="#262322"></path><path d="M252.9 239.7L343.2 286.7L346.2 217Z" fill="#292524" stroke="#292524"></path><path d="M285.9 300.3L330.2 411L377.2 366.3Z" fill="#181716" stroke="#181716"></path><path d="M378.4 382L402.4 472.7L447.6 416Z" fill="#23201f" stroke="#23201f"></path><path d="M330.2 411L402.4 472.7L378.4 382Z" fill="#131110" stroke="#131110"></path><path d="M452.6 444.7L494.6 497.3L586.8 426Z" fill="#201e1d" stroke="#201e1d"></path><path d="M617.1 410L687.3 306.3L596.1 326.3Z" fill="#1e1b1a" stroke="#1e1b1a"></path><path d="M594.1 43.7L583.1 141.3L731.3 145.3Z" fill="#1b1918" stroke="#1b1918"></path><path d="M391.4 76.7L359.2 104.7L369.2 126.3Z" fill="#1b1918" stroke="#1b1918"></path><path d="M290.9 99.7L252.9 190L346.2 217Z" fill="#201e1d" stroke="#201e1d"></path><path d="M402.4 510.3L494.6 497.3L452.6 444.7Z" fill="#262322" stroke="#262322"></path><path d="M586.8 426L633.1 457.7L617.1 410Z" fill="#23201f" stroke="#23201f"></path><path d="M582.8 56.7L449.6 67.7L452.4 103.3Z" fill="#181716" stroke="#181716"></path><path d="M452.4 103.3L391.4 76.7L369.2 126.3Z" fill="#131110" stroke="#131110"></path><path d="M449.6 67.7L391.4 76.7L452.4 103.3Z" fill="#131110" stroke="#131110"></path><path d="M252.9 190L252.9 239.7L346.2 217Z" fill="#262322" stroke="#262322"></path><path d="M260.9 405L326.2 471.7L330.2 411Z" fill="#201e1d" stroke="#201e1d"></path><path d="M494.6 497.3L550.8 503.7L586.8 426Z" fill="#181716" stroke="#181716"></path><path d="M550.8 503.7L633.1 457.7L586.8 426Z" fill="#0c0a09" stroke="#0c0a09"></path><path d="M617.1 410L698.3 399L687.3 306.3Z" fill="#181716" stroke="#181716"></path><path d="M235.7 219L245.7 248.7L252.9 239.7Z" fill="#181716" stroke="#181716"></path><path d="M252.9 239.7L245.7 248.7L285.9 300.3Z" fill="#131110" stroke="#131110"></path><path d="M326.2 471.7L402.4 510.3L402.4 472.7Z" fill="#131110" stroke="#131110"></path><path d="M402.4 472.7L402.4 510.3L452.6 444.7Z" fill="#1b1918" stroke="#1b1918"></path><path d="M524.8 600L588.8 534.3L550.8 503.7Z" fill="#0c0a09" stroke="#0c0a09"></path><path d="M260.9 405L330.2 411L285.9 300.3Z" fill="#181716" stroke="#181716"></path><path d="M330.2 411L326.2 471.7L402.4 472.7Z" fill="#131110" stroke="#131110"></path><path d="M290.9 99.7L346.2 217L369.2 126.3Z" fill="#100e0d" stroke="#100e0d"></path><path d="M290.9 99.7L369.2 126.3L359.2 104.7Z" fill="#1e1b1a" stroke="#1e1b1a"></path><path d="M722.3 169L592.8 164.3L639.1 234Z" fill="#161413" stroke="#161413"></path><path d="M583.1 141.3L582.8 56.7L452.4 103.3Z" fill="#1e1b1a" stroke="#1e1b1a"></path><path d="M633.1 457.7L698.3 399L617.1 410Z" fill="#23201f" stroke="#23201f"></path><path d="M230.7 377L260.9 405L285.9 300.3Z" fill="#161413" stroke="#161413"></path><path d="M743.5 275.7L730.3 251.7L687.3 306.3Z" fill="#1b1918" stroke="#1b1918"></path><path d="M687.3 306.3L730.3 251.7L639.1 234Z" fill="#0c0a09" stroke="#0c0a09"></path><path d="M252.9 190L235.7 219L252.9 239.7Z" fill="#161413" stroke="#161413"></path><path d="M194.7 372.3L230.7 377L165.5 346.3Z" fill="#1b1918" stroke="#1b1918"></path><path d="M346.2 0L290.9 99.7L359.2 104.7Z" fill="#181716" stroke="#181716"></path><path d="M252.9 190L222.7 171.3L235.7 219Z" fill="#1e1b1a" stroke="#1e1b1a"></path><path d="M768.5 302.3L743.5 275.7L687.3 306.3Z" fill="#292524" stroke="#292524"></path><path d="M731.3 145.3L583.1 141.3L592.8 164.3Z" fill="#292524" stroke="#292524"></path><path d="M582.8 56.7L514.6 0L449.6 67.7Z" fill="#292524" stroke="#292524"></path><path d="M449.6 67.7L384.4 0L391.4 76.7Z" fill="#201e1d" stroke="#201e1d"></path><path d="M744.5 436.7L729.5 372L698.3 399Z" fill="#131110" stroke="#131110"></path><path d="M698.3 399L729.5 372L687.3 306.3Z" fill="#161413" stroke="#161413"></path><path d="M731.3 145.3L722.3 169L784.5 170.3Z" fill="#201e1d" stroke="#201e1d"></path><path d="M730.3 251.7L722.3 169L639.1 234Z" fill="#100e0d" stroke="#100e0d"></path><path d="M230.7 377L285.9 300.3L165.5 346.3Z" fill="#181716" stroke="#181716"></path><path d="M260.9 405L290.9 488.7L326.2 471.7Z" fill="#161413" stroke="#161413"></path><path d="M524.8 600L550.8 503.7L494.6 497.3Z" fill="#292524" stroke="#292524"></path><path d="M550.8 503.7L588.8 534.3L633.1 457.7Z" fill="#292524" stroke="#292524"></path><path d="M633.1 457.7L707.3 482.7L698.3 399Z" fill="#1b1918" stroke="#1b1918"></path><path d="M290.9 99.7L256.9 120.3L252.9 190Z" fill="#161413" stroke="#161413"></path><path d="M256.9 120.3L222.7 171.3L252.9 190Z" fill="#23201f" stroke="#23201f"></path><path d="M165.5 346.3L285.9 300.3L245.7 248.7Z" fill="#181716" stroke="#181716"></path><path d="M260.9 508.3L290.9 488.7L226.7 475.7Z" fill="#131110" stroke="#131110"></path><path d="M326.2 471.7L374.2 562.3L402.4 510.3Z" fill="#181716" stroke="#181716"></path><path d="M572.8 0L514.6 0L582.8 56.7Z" fill="#131110" stroke="#131110"></path><path d="M391.4 76.7L346.2 0L359.2 104.7Z" fill="#1e1b1a" stroke="#1e1b1a"></path><path d="M784.5 170.3L722.3 169L798.5 196Z" fill="#131110" stroke="#131110"></path><path d="M722.3 169L731.3 145.3L592.8 164.3Z" fill="#1e1b1a" stroke="#1e1b1a"></path><path d="M729.5 372L768.5 302.3L687.3 306.3Z" fill="#1e1b1a" stroke="#1e1b1a"></path><path d="M798.5 196L722.3 169L730.3 251.7Z" fill="#23201f" stroke="#23201f"></path><path d="M662.1 0L572.8 0L594.1 43.7Z" fill="#181716" stroke="#181716"></path><path d="M594.1 43.7L572.8 0L582.8 56.7Z" fill="#262322" stroke="#262322"></path><path d="M514.6 0L384.4 0L449.6 67.7Z" fill="#181716" stroke="#181716"></path><path d="M290.9 99.7L243.7 92.7L256.9 120.3Z" fill="#181716" stroke="#181716"></path><path d="M590.1 600L617.1 546.3L588.8 534.3Z" fill="#1e1b1a" stroke="#1e1b1a"></path><path d="M588.8 534.3L617.1 546.3L633.1 457.7Z" fill="#1b1918" stroke="#1b1918"></path><path d="M165.5 346.3L245.7 248.7L123.5 302.7Z" fill="#201e1d" stroke="#201e1d"></path><path d="M230.7 377L226.7 475.7L260.9 405Z" fill="#23201f" stroke="#23201f"></path><path d="M290.9 488.7L374.2 562.3L326.2 471.7Z" fill="#1e1b1a" stroke="#1e1b1a"></path><path d="M402.4 510.3L485.6 600L494.6 497.3Z" fill="#1e1b1a" stroke="#1e1b1a"></path><path d="M295.9 0L243.7 92.7L290.9 99.7Z" fill="#23201f" stroke="#23201f"></path><path d="M256.9 120.3L243.7 92.7L222.7 171.3Z" fill="#131110" stroke="#131110"></path><path d="M681.3 536.3L707.3 482.7L633.1 457.7Z" fill="#201e1d" stroke="#201e1d"></path><path d="M729.5 372L794.8 361.3L768.5 302.3Z" fill="#100e0d" stroke="#100e0d"></path><path d="M707.3 482.7L744.5 436.7L698.3 399Z" fill="#161413" stroke="#161413"></path><path d="M384.4 0L346.2 0L391.4 76.7Z" fill="#1e1b1a" stroke="#1e1b1a"></path><path d="M226.7 475.7L290.9 488.7L260.9 405Z" fill="#181716" stroke="#181716"></path><path d="M290.9 488.7L323.2 600L374.2 562.3Z" fill="#201e1d" stroke="#201e1d"></path><path d="M401.4 600L485.6 600L402.4 510.3Z" fill="#262322" stroke="#262322"></path><path d="M194.7 372.3L226.7 475.7L230.7 377Z" fill="#23201f" stroke="#23201f"></path><path d="M485.6 600L524.8 600L494.6 497.3Z" fill="#131110" stroke="#131110"></path><path d="M128.5 222L245.7 248.7L235.7 219Z" fill="#181716" stroke="#181716"></path><path d="M194.7 372.3L143.5 451.7L226.7 475.7Z" fill="#292524" stroke="#292524"></path><path d="M128.5 222L235.7 219L222.7 171.3Z" fill="#100e0d" stroke="#100e0d"></path><path d="M798.5 196L730.3 251.7L743.5 275.7Z" fill="#100e0d" stroke="#100e0d"></path><path d="M723.3 28.7L662.1 0L594.1 43.7Z" fill="#100e0d" stroke="#100e0d"></path><path d="M617.1 546.3L681.3 536.3L633.1 457.7Z" fill="#131110" stroke="#131110"></path><path d="M776.5 508.3L795.8 418L744.5 436.7Z" fill="#1b1918" stroke="#1b1918"></path><path d="M704.3 600L681.3 536.3L617.1 546.3Z" fill="#161413" stroke="#161413"></path><path d="M795.8 418L794.8 361.3L729.5 372Z" fill="#23201f" stroke="#23201f"></path><path d="M768.5 302.3L798.5 196L743.5 275.7Z" fill="#100e0d" stroke="#100e0d"></path><path d="M795.8 418L729.5 372L744.5 436.7Z" fill="#1e1b1a" stroke="#1e1b1a"></path><path d="M323.2 600L401.4 600L374.2 562.3Z" fill="#161413" stroke="#161413"></path><path d="M374.2 562.3L401.4 600L402.4 510.3Z" fill="#262322" stroke="#262322"></path><path d="M859.8 261.7L798.5 196L768.5 302.3Z" fill="#131110" stroke="#131110"></path><path d="M723.3 28.7L594.1 43.7L731.3 145.3Z" fill="#161413" stroke="#161413"></path><path d="M524.8 600L590.1 600L588.8 534.3Z" fill="#161413" stroke="#161413"></path><path d="M346.2 0L295.9 0L290.9 99.7Z" fill="#292524" stroke="#292524"></path><path d="M776.5 508.3L744.5 436.7L707.3 482.7Z" fill="#262322" stroke="#262322"></path><path d="M794.8 361.3L859.8 261.7L768.5 302.3Z" fill="#131110" stroke="#131110"></path><path d="M797.5 95.7L723.3 28.7L731.3 145.3Z" fill="#201e1d" stroke="#201e1d"></path><path d="M797.5 95.7L731.3 145.3L784.5 170.3Z" fill="#292524" stroke="#292524"></path><path d="M260.9 508.3L323.2 600L290.9 488.7Z" fill="#131110" stroke="#131110"></path><path d="M282.9 600L323.2 600L260.9 508.3Z" fill="#100e0d" stroke="#100e0d"></path><path d="M723.3 28.7L697.3 0L662.1 0Z" fill="#292524" stroke="#292524"></path><path d="M149.5 138.3L222.7 171.3L243.7 92.7Z" fill="#1e1b1a" stroke="#1e1b1a"></path><path d="M149.5 138.3L128.5 222L222.7 171.3Z" fill="#0c0a09" stroke="#0c0a09"></path><path d="M128.5 222L123.5 302.7L245.7 248.7Z" fill="#201e1d" stroke="#201e1d"></path><path d="M105.5 426L143.5 451.7L194.7 372.3Z" fill="#131110" stroke="#131110"></path><path d="M145.5 41.7L149.5 138.3L243.7 92.7Z" fill="#262322" stroke="#262322"></path><path d="M831.8 112.3L797.5 95.7L784.5 170.3Z" fill="#262322" stroke="#262322"></path><path d="M723.3 28.7L752.5 0L697.3 0Z" fill="#100e0d" stroke="#100e0d"></path><path d="M295.9 0L243.7 0L243.7 92.7Z" fill="#262322" stroke="#262322"></path><path d="M735.5 600L776.5 508.3L681.3 536.3Z" fill="#161413" stroke="#161413"></path><path d="M681.3 536.3L776.5 508.3L707.3 482.7Z" fill="#181716" stroke="#181716"></path><path d="M196.7 553.3L260.9 508.3L226.7 475.7Z" fill="#161413" stroke="#161413"></path><path d="M225.7 600L282.9 600L260.9 508.3Z" fill="#181716" stroke="#181716"></path><path d="M105.5 426L194.7 372.3L165.5 346.3Z" fill="#100e0d" stroke="#100e0d"></path><path d="M900 256.7L859.8 261.7L900 361.3Z" fill="#201e1d" stroke="#201e1d"></path><path d="M798.5 196L831.8 112.3L784.5 170.3Z" fill="#131110" stroke="#131110"></path><path d="M900 361.3L794.8 361.3L795.8 418Z" fill="#161413" stroke="#161413"></path><path d="M65.2 163L96.2 261.7L128.5 222Z" fill="#262322" stroke="#262322"></path><path d="M128.5 222L96.2 261.7L123.5 302.7Z" fill="#0c0a09" stroke="#0c0a09"></path><path d="M60.2 363.3L105.5 426L165.5 346.3Z" fill="#161413" stroke="#161413"></path><path d="M590.1 600L704.3 600L617.1 546.3Z" fill="#262322" stroke="#262322"></path><path d="M868.8 205L831.8 112.3L798.5 196Z" fill="#100e0d" stroke="#100e0d"></path><path d="M797.5 95.7L752.5 0L723.3 28.7Z" fill="#201e1d" stroke="#201e1d"></path><path d="M834.8 38.7L752.5 0L797.5 95.7Z" fill="#201e1d" stroke="#201e1d"></path><path d="M143.5 451.7L196.7 553.3L226.7 475.7Z" fill="#23201f" stroke="#23201f"></path><path d="M859.8 261.7L868.8 205L798.5 196Z" fill="#1e1b1a" stroke="#1e1b1a"></path><path d="M60.2 363.3L165.5 346.3L123.5 302.7Z" fill="#1e1b1a" stroke="#1e1b1a"></path><path d="M143.5 451.7L111.5 539.3L196.7 553.3Z" fill="#1b1918" stroke="#1b1918"></path><path d="M157.5 600L225.7 600L196.7 553.3Z" fill="#0c0a09" stroke="#0c0a09"></path><path d="M196.7 553.3L225.7 600L260.9 508.3Z" fill="#1b1918" stroke="#1b1918"></path><path d="M704.3 600L735.5 600L681.3 536.3Z" fill="#181716" stroke="#181716"></path><path d="M865.8 497.3L850.8 452.7L776.5 508.3Z" fill="#292524" stroke="#292524"></path><path d="M776.5 508.3L850.8 452.7L795.8 418Z" fill="#1b1918" stroke="#1b1918"></path><path d="M859.8 261.7L900 226L868.8 205Z" fill="#100e0d" stroke="#100e0d"></path><path d="M168.5 0L145.5 41.7L243.7 92.7Z" fill="#181716" stroke="#181716"></path><path d="M149.5 138.3L92.2 140.3L128.5 222Z" fill="#100e0d" stroke="#100e0d"></path><path d="M71.2 73.7L92.2 140.3L149.5 138.3Z" fill="#161413" stroke="#161413"></path><path d="M243.7 0L168.5 0L243.7 92.7Z" fill="#1e1b1a" stroke="#1e1b1a"></path><path d="M900 361.3L859.8 261.7L794.8 361.3Z" fill="#131110" stroke="#131110"></path><path d="M868.8 205L900 126.3L831.8 112.3Z" fill="#262322" stroke="#262322"></path><path d="M900 256.7L900 226L859.8 261.7Z" fill="#23201f" stroke="#23201f"></path><path d="M850.8 452.7L900 361.3L795.8 418Z" fill="#292524" stroke="#292524"></path><path d="M96.2 261.7L60.2 363.3L123.5 302.7Z" fill="#292524" stroke="#292524"></path><path d="M105.5 426L111.5 539.3L143.5 451.7Z" fill="#1e1b1a" stroke="#1e1b1a"></path><path d="M0 324.3L60.2 363.3L96.2 261.7Z" fill="#181716" stroke="#181716"></path><path d="M831.8 112.3L834.8 38.7L797.5 95.7Z" fill="#181716" stroke="#181716"></path><path d="M900 75.7L834.8 38.7L831.8 112.3Z" fill="#23201f" stroke="#23201f"></path><path d="M71.2 73.7L65.2 163L92.2 140.3Z" fill="#262322" stroke="#262322"></path><path d="M92.2 140.3L65.2 163L128.5 222Z" fill="#161413" stroke="#161413"></path><path d="M71.2 73.7L149.5 138.3L145.5 41.7Z" fill="#292524" stroke="#292524"></path><path d="M836.8 600L865.8 497.3L776.5 508.3Z" fill="#201e1d" stroke="#201e1d"></path><path d="M850.8 452.7L900 431L900 361.3Z" fill="#0c0a09" stroke="#0c0a09"></path><path d="M900 438.7L900 431L850.8 452.7Z" fill="#181716" stroke="#181716"></path><path d="M900 226L900 126.3L868.8 205Z" fill="#1b1918" stroke="#1b1918"></path><path d="M865.8 497.3L900 438.7L850.8 452.7Z" fill="#0c0a09" stroke="#0c0a09"></path><path d="M46.2 448.7L111.5 539.3L105.5 426Z" fill="#23201f" stroke="#23201f"></path><path d="M111.5 539.3L157.5 600L196.7 553.3Z" fill="#262322" stroke="#262322"></path><path d="M102.2 0L71.2 73.7L145.5 41.7Z" fill="#131110" stroke="#131110"></path><path d="M35.2 425L105.5 426L60.2 363.3Z" fill="#1b1918" stroke="#1b1918"></path><path d="M35.2 425L46.2 448.7L105.5 426Z" fill="#1b1918" stroke="#1b1918"></path><path d="M0 393L35.2 425L60.2 363.3Z" fill="#0c0a09" stroke="#0c0a09"></path><path d="M0 324.3L96.2 261.7L0 232.7Z" fill="#1e1b1a" stroke="#1e1b1a"></path><path d="M900 126.3L900 75.7L831.8 112.3Z" fill="#23201f" stroke="#23201f"></path><path d="M900 0L854.8 0L834.8 38.7Z" fill="#0c0a09" stroke="#0c0a09"></path><path d="M834.8 38.7L854.8 0L752.5 0Z" fill="#23201f" stroke="#23201f"></path><path d="M168.5 0L102.2 0L145.5 41.7Z" fill="#0c0a09" stroke="#0c0a09"></path><path d="M735.5 600L836.8 600L776.5 508.3Z" fill="#0c0a09" stroke="#0c0a09"></path><path d="M865.8 497.3L900 519.3L900 438.7Z" fill="#1e1b1a" stroke="#1e1b1a"></path><path d="M0 232.7L96.2 261.7L0 210Z" fill="#1b1918" stroke="#1b1918"></path><path d="M836.8 600L900 519.3L865.8 497.3Z" fill="#0c0a09" stroke="#0c0a09"></path><path d="M0 210L65.2 163L0 98.3Z" fill="#1b1918" stroke="#1b1918"></path><path d="M0 210L96.2 261.7L65.2 163Z" fill="#0c0a09" stroke="#0c0a09"></path><path d="M0 98.3L65.2 163L71.2 73.7Z" fill="#23201f" stroke="#23201f"></path><path d="M0 324.3L0 393L60.2 363.3Z" fill="#100e0d" stroke="#100e0d"></path><path d="M35.2 425L0 438.7L46.2 448.7Z" fill="#23201f" stroke="#23201f"></path><path d="M46.2 448.7L42.2 543.3L111.5 539.3Z" fill="#0c0a09" stroke="#0c0a09"></path><path d="M111.5 539.3L70.2 600L157.5 600Z" fill="#181716" stroke="#181716"></path><path d="M0 393L0 438.7L35.2 425Z" fill="#262322" stroke="#262322"></path><path d="M900 75.7L900 0L834.8 38.7Z" fill="#1b1918" stroke="#1b1918"></path><path d="M0 523.3L42.2 543.3L46.2 448.7Z" fill="#292524" stroke="#292524"></path><path d="M0 71.7L0 98.3L71.2 73.7Z" fill="#1b1918" stroke="#1b1918"></path><path d="M42.2 543.3L70.2 600L111.5 539.3Z" fill="#1e1b1a" stroke="#1e1b1a"></path><path d="M0 0L0 71.7L71.2 73.7Z" fill="#201e1d" stroke="#201e1d"></path><path d="M836.8 600L900 600L900 519.3Z" fill="#181716" stroke="#181716"></path><path d="M0 438.7L0 523.3L46.2 448.7Z" fill="#131110" stroke="#131110"></path><path d="M42.2 543.3L0 600L70.2 600Z" fill="#131110" stroke="#131110"></path><path d="M102.2 0L0 0L71.2 73.7Z" fill="#1e1b1a" stroke="#1e1b1a"></path><path d="M0 523.3L0 600L42.2 543.3Z" fill="#1e1b1a" stroke="#1e1b1a"></path></g></svg>